<?xml version="1.0" standalone="no"?>
<!DOCTYPE svg PUBLIC "-//W3C//DTD SVG 20010904//EN"
 "http://www.w3.org/TR/2001/REC-SVG-20010904/DTD/svg10.dtd">
<svg version="1.0" xmlns="http://www.w3.org/2000/svg"
 width="394.000000pt" height="354.000000pt" viewBox="0 0 394.000000 354.000000"
 preserveAspectRatio="xMidYMid meet">

<g transform="translate(0.000000,354.000000) scale(0.100000,-0.100000)"
fill="#000000" stroke="none">
<path d="M1730 3024 c-278 -75 -294 -82 -370 -143 -25 -20 -52 -41 -60 -48 -8
-6 -46 -42 -84 -78 -38 -36 -88 -74 -110 -84 -110 -49 -153 -143 -161 -348 -7
-154 -22 -189 -94 -219 l-26 -10 40 -37 c52 -48 105 -58 168 -32 26 11 22 -14
-14 -81 -28 -54 -30 -64 -25 -123 4 -35 13 -78 20 -95 12 -28 11 -37 -5 -67
-10 -19 -23 -57 -30 -86 -12 -50 -11 -55 19 -115 18 -35 45 -78 61 -95 60 -68
187 -139 268 -150 60 -8 55 13 -7 31 -138 41 -230 110 -295 220 -27 46 -28 52
-17 102 6 29 18 64 28 79 15 23 18 24 33 11 30 -27 89 -46 143 -46 143 1 255
144 219 279 -6 24 -9 46 -6 49 11 11 125 6 136 -5 8 -8 12 -34 10 -66 -2 -47
20 -115 56 -177 2 -3 -32 -6 -74 -8 -43 -1 -82 -7 -87 -12 -6 -6 -18 -10 -27
-10 -27 0 -31 -33 -14 -101 20 -77 50 -138 79 -161 72 -59 210 28 251 157 12
40 21 55 31 51 8 -3 42 3 76 14 88 27 162 93 183 162 8 28 12 61 9 74 -5 19
-2 24 14 24 35 0 148 -39 176 -61 15 -11 47 -32 72 -45 25 -13 79 -49 120 -79
l74 -55 0 -53 c0 -70 9 -83 48 -69 18 6 45 7 66 2 19 -4 37 -6 39 -4 2 2 12
-5 21 -15 24 -26 24 -80 2 -129 -22 -49 -58 -67 -115 -57 -41 7 -51 -1 -30
-22 14 -14 -96 -72 -181 -96 -53 -15 -83 -20 -212 -34 -48 -5 -58 -9 -58 -25
0 -14 6 -17 23 -14 67 14 106 15 113 4 12 -18 -81 -94 -169 -138 l-79 -39 -61
39 c-78 49 -130 100 -117 115 5 6 23 12 41 13 68 5 68 32 -1 32 -52 0 -192 20
-317 45 -40 8 -80 15 -90 15 -15 0 -15 -2 -3 -14 14 -14 174 -48 283 -61 26
-4 47 -9 47 -13 -1 -4 -33 -28 -73 -55 -150 -99 -178 -138 -243 -335 -27 -83
-52 -152 -56 -152 -4 0 -21 30 -39 67 -31 69 -32 83 -14 169 6 26 2 37 -23 65
-29 33 -33 34 -109 36 -43 1 -98 5 -123 8 l-46 7 -41 102 c-49 124 -53 126
-185 104 -110 -18 -204 -52 -218 -78 -13 -24 23 -196 88 -415 38 -130 56 -171
80 -184 23 -12 84 -17 99 -8 11 7 252 77 264 77 4 0 12 -14 18 -30 13 -39 36
-41 27 -3 -4 16 -11 53 -16 83 -5 30 -12 64 -15 76 -5 17 1 23 34 36 35 14 41
21 41 45 0 42 -22 78 -48 79 -12 1 -25 3 -27 6 -8 7 39 67 57 71 32 9 81 -9
101 -35 19 -25 19 -31 7 -82 -14 -61 -14 -62 46 -191 17 -38 35 -78 38 -87 3
-10 12 -18 21 -18 11 0 14 6 9 24 -6 27 -7 24 57 229 51 161 87 215 189 286
l63 44 -8 -39 c-5 -21 -9 -55 -9 -74 l-1 -35 122 0 c67 -1 125 -3 128 -6 3 -4
-6 -48 -20 -100 -34 -129 -74 -322 -68 -331 10 -18 23 -5 28 30 11 67 56 265
78 340 l21 74 91 -5 c49 -3 118 -3 153 0 l62 6 -1 46 c0 25 -4 68 -8 94 l-8
49 30 -6 c43 -9 245 -96 273 -119 28 -21 78 -93 87 -122 3 -11 21 -65 40 -120
19 -55 38 -120 42 -144 9 -57 30 -107 39 -93 13 22 -68 309 -112 397 -27 55
-82 113 -126 134 -24 11 -88 37 -142 57 -55 21 -103 41 -107 45 -5 4 17 14 50
23 32 9 80 27 107 41 31 15 55 21 64 16 14 -8 50 -2 136 20 87 23 192 130 216
219 10 38 26 165 36 275 7 91 24 187 34 200 19 24 39 126 38 195 -1 69 -16
160 -37 220 -5 14 -15 45 -22 70 -38 134 -177 332 -289 412 -50 35 -136 68
-181 68 -30 0 -51 10 -103 49 -110 83 -151 94 -361 97 -161 1 -189 -1 -265
-22z m-197 -488 c9 -7 24 -34 33 -60 17 -49 28 -61 45 -50 8 4 8 9 0 17 -6 6
-11 20 -11 32 0 11 -7 32 -14 48 -8 15 -11 27 -6 27 23 0 40 -15 40 -35 0 -36
19 -77 33 -72 13 5 13 16 2 61 -8 28 -7 29 21 22 104 -25 105 -25 98 -51 -7
-29 15 -35 36 -10 22 26 40 18 34 -15 -7 -34 1 -38 29 -12 18 16 20 16 52 -21
22 -25 42 -67 60 -125 14 -48 35 -105 46 -127 31 -63 166 -247 204 -278 50
-41 43 -50 -16 -20 -28 14 -79 30 -113 36 -60 11 -61 12 -86 61 -34 67 -96
112 -153 110 -121 -4 -199 -32 -253 -90 -28 -32 -36 -35 -49 -24 -17 14 -96
19 -135 8 -21 -6 -28 -2 -42 23 -10 16 -33 36 -52 44 -44 19 -168 19 -218 1
-49 -17 -52 1 -6 29 64 37 132 117 161 188 15 37 27 74 27 83 0 61 144 211
205 213 6 0 18 -6 28 -13z m405 -518 c32 -25 51 -53 67 -97 8 -25 13 -46 11
-49 -3 -2 -38 3 -78 12 -165 36 -166 36 -183 9 -19 -28 -12 -43 19 -43 12 0
58 -9 102 -19 43 -11 91 -22 107 -25 51 -12 27 -63 -57 -120 -74 -52 -136 -58
-204 -21 -84 45 -131 138 -118 228 5 35 16 53 45 80 75 68 230 92 289 45z
m-614 -8 c16 -6 35 -29 51 -59 29 -58 32 -80 8 -56 -13 14 -28 16 -72 12 -87
-9 -161 -35 -170 -60 -15 -38 3 -42 101 -24 51 9 110 18 132 20 l38 3 -5 -38
c-7 -52 -62 -123 -114 -148 -58 -28 -118 -26 -181 6 -55 27 -59 33 -41 67 7
11 18 43 25 71 14 54 6 86 -24 86 -34 0 -45 15 -31 41 7 15 14 19 17 11 7 -21
22 -13 22 12 0 44 46 64 152 65 37 1 78 -3 92 -9z m-258 -150 c10 -10 -7 -104
-21 -118 -8 -9 -25 49 -25 89 0 31 4 39 18 39 10 0 23 -5 28 -10z m632 -226
c27 -11 32 -18 32 -47 0 -41 -45 -115 -89 -146 -48 -34 -103 -39 -129 -11 -28
30 -83 192 -69 206 2 2 31 8 63 13 68 11 145 5 192 -15z m-782 -514 c6 0 21
-24 33 -52 12 -29 31 -72 42 -96 10 -23 19 -51 19 -62 0 -17 4 -18 24 -10 30
11 98 1 93 -14 -2 -7 -22 -10 -49 -8 -25 2 -49 -1 -52 -6 -6 -9 17 -78 74
-224 12 -31 20 -64 17 -72 -3 -8 -39 -24 -79 -36 -40 -11 -101 -29 -135 -40
-106 -34 -140 -25 -162 42 -63 204 -131 455 -131 489 0 18 57 44 154 71 56 15
110 25 121 23 11 -3 25 -5 31 -5z m1348 -57 c3 -21 6 -54 6 -74 0 -33 -3 -37
-31 -43 -41 -8 -149 -7 -172 3 -15 6 -12 10 19 24 45 22 154 105 154 118 0 5
4 9 9 9 4 0 11 -17 15 -37z m-440 -39 c28 -26 67 -54 86 -63 l35 -16 -104 -3
c-57 -1 -106 0 -109 2 -8 9 20 126 30 126 6 0 33 -21 62 -46z m-684 -244 c23
0 44 -26 37 -45 -4 -8 -18 -17 -33 -21 -35 -9 -54 16 -53 70 0 40 0 41 16 19
8 -13 23 -23 33 -23z"/>
<path d="M1049 615 c-46 -25 -229 -75 -274 -75 -3 0 -5 -7 -5 -16 0 -13 8 -15
43 -9 137 21 277 71 277 100 0 18 -7 18 -41 0z"/>
<path d="M2448 980 c-20 -11 -48 -35 -62 -52 -26 -35 -70 -138 -59 -138 4 0 2
-5 -5 -12 -13 -13 -17 -212 -6 -281 11 -62 28 -38 24 34 -10 205 -7 238 23
303 44 92 93 136 152 136 16 0 25 6 25 15 0 21 -47 18 -92 -5z"/>
</g>
</svg>
